<svg width="121" height="16" viewBox="0 0 121 16" fill="none" xmlns="http://www.w3.org/2000/svg">
<path d="M17.5674 16H14.0977V6.32129H14.0225L10.1875 15.8389H7.93164L4.10742 6.32129H4.02148V16H0.551758V0.499023H5.10645L9.0166 10.457H9.10254L13.0127 0.499023H17.5674V16ZM25.8516 16H21.9092V0.499023H25.8516V16ZM37.7344 16H33.8027V3.67871H29.5273V0.499023H42.0098V3.67871H37.7344V16ZM49.6172 3.47461V7.87891H51.9268C52.6501 7.87891 53.2158 7.68197 53.624 7.28809C54.0322 6.89421 54.2363 6.36068 54.2363 5.6875C54.2363 5.02148 54.0251 4.48796 53.6025 4.08691C53.18 3.67871 52.6178 3.47461 51.916 3.47461H49.6172ZM49.6172 10.5752V16H45.6748V0.499023H52.3135C54.2327 0.499023 55.7044 0.946615 56.7285 1.8418C57.7526 2.73698 58.2646 3.99382 58.2646 5.6123C58.2646 6.58626 58.0283 7.4707 57.5557 8.26562C57.0902 9.05339 56.4421 9.62988 55.6113 9.99512L58.7158 16H54.29L51.626 10.5752H49.6172ZM72.4355 16L71.458 12.5947H66.3877L65.3994 16H61.3818L66.5918 0.499023H71.415L76.625 16H72.4355ZM68.8799 3.78613L67.1504 9.75879H70.6846L68.9658 3.78613H68.8799ZM87.3584 16H82.3955L77.4541 0.499023H81.9336L84.9199 12.1436H85.0059L87.9814 0.499023H92.2998L87.3584 16ZM106.406 12.8203V16H95.7822V0.499023H106.406V3.67871H99.7246V6.76172H106.009V9.66211H99.7246V12.8203H106.406ZM120.985 12.8203V16H110.63V0.499023H114.572V12.8203H120.985Z" fill="white"/>
</svg>
